<svg width="105" height="76" viewBox="0 0 105 76" fill="none" xmlns="http://www.w3.org/2000/svg">
<g filter="url(#filter0_d_4_256)">
<path fill-rule="evenodd" clip-rule="evenodd" d="M90.0626 4.6875H88.9669C89.4095 4.6875 89.844 4.70978 90.2677 4.75266C90.1996 4.73021 90.1313 4.70849 90.0626 4.6875ZM90.9822 65.279C90.3405 65.382 89.6687 65.437 88.9769 65.4375H90.5787C90.7147 65.3875 90.8492 65.3347 90.9822 65.279ZM6.24964 65.4375H8.40143C7.33499 65.4367 6.31588 65.3064 5.38195 65.0704C5.664 65.206 5.95349 65.3287 6.24964 65.4375ZM6.20215 4.87867C6.90495 4.75415 7.64605 4.6875 8.41145 4.6875H6.76577C6.57539 4.74569 6.38745 4.80947 6.20215 4.87867ZM50.1157 63.6435H88.9669C91.8803 63.6435 94.25 62.1569 94.25 60.3292V54.9093H78.8975C78.5182 54.9093 78.1557 54.8145 77.8872 54.6461L64.8808 46.4867H50.1157V63.6435ZM3.125 54.9093V60.3292C3.125 62.1569 5.49803 63.6435 8.41145 63.6435H47.2627V46.4867H32.5009L19.4945 54.6461C19.226 54.8145 18.8635 54.9093 18.4842 54.9093H3.125ZM79.4882 53.1153H94.25V35.9563H66.9014V45.2191L79.4882 53.1153ZM3.125 53.1153H17.8868L30.4769 45.2191V35.9563H3.125V53.1153ZM33.3333 44.6927H64.0417V25.4281H33.3333V44.6927ZM66.9014 34.1665H94.25V17.0055H79.4882L66.9014 24.9038V34.1665ZM3.125 34.1665H30.4769V24.9059L17.8901 17.0055H3.125V34.1665ZM50.1157 23.6383H64.8808L77.8872 15.4789C78.1557 15.3105 78.5182 15.2157 78.8975 15.2157H94.25V9.79369C94.25 7.96599 91.8803 6.4773 88.9669 6.4773H50.1157V23.6383ZM32.4975 23.6383H47.2593V6.4773H8.41145C5.49803 6.4773 3.125 7.96599 3.125 9.79369V15.2157H18.4809C18.8602 15.2157 19.2227 15.3084 19.4912 15.4789L32.4975 23.6383Z" fill="#DAB56D"/>
</g>
<defs>
<filter id="filter0_d_4_256" x="0.0874996" y="0.890625" width="104.794" height="74.4188" filterUnits="userSpaceOnUse" color-interpolation-filters="sRGB">
<feFlood flood-opacity="0" result="BackgroundImageFix"/>
<feColorMatrix in="SourceAlpha" type="matrix" values="0 0 0 0 0 0 0 0 0 0 0 0 0 0 0 0 0 0 127 0" result="hardAlpha"/>
<feOffset dx="3.79688" dy="3.0375"/>
<feGaussianBlur stdDeviation="3.41719"/>
<feComposite in2="hardAlpha" operator="out"/>
<feColorMatrix type="matrix" values="0 0 0 0 0.2 0 0 0 0 0.2 0 0 0 0 0.2 0 0 0 0.25 0"/>
<feBlend mode="normal" in2="BackgroundImageFix" result="effect1_dropShadow_4_256"/>
<feBlend mode="normal" in="SourceGraphic" in2="effect1_dropShadow_4_256" result="shape"/>
</filter>
</defs>
</svg>
