<svg width="66" height="41" viewBox="0 0 66 41" fill="none" xmlns="http://www.w3.org/2000/svg">
<path d="M42.0521 36.0187H24.3887V4.97388H42.0521V36.0187Z" fill="#FF5F00"/>
<path d="M25.5203 20.4939C25.5203 14.1962 28.5353 8.58643 33.2305 4.97138C29.797 2.32785 25.4639 0.75 20.7544 0.75C9.6058 0.75 0.568359 9.58952 0.568359 20.4939C0.568359 31.398 9.6058 40.2375 20.7544 40.2375C25.4639 40.2375 29.797 38.6597 33.2305 36.0162C28.5353 32.4011 25.5203 26.7913 25.5203 20.4939Z" fill="#EB001B"/>
<path d="M65.8743 20.4939C65.8743 31.398 56.8369 40.2375 45.6882 40.2375C40.9788 40.2375 36.6456 38.6597 33.2109 36.0162C37.9074 32.4011 40.9223 26.7913 40.9223 20.4939C40.9223 14.1962 37.9074 8.58643 33.2109 4.97138C36.6456 2.32785 40.9788 0.75 45.6882 0.75C56.8369 0.75 65.8743 9.58952 65.8743 20.4939Z" fill="#F79E1B"/>
</svg>
