<svg width="29" height="33" viewBox="0 0 29 33" fill="none" xmlns="http://www.w3.org/2000/svg">
<path d="M23.5704 30.5219C25.7088 26.2137 26.8752 21.5309 26.8752 16.4735C26.8752 11.4161 25.7088 6.54594 23.5704 2.42505M16.572 27.3378C18.1272 23.9662 19.0992 20.2199 19.0992 16.4736C19.0992 12.7274 18.1272 8.79388 16.572 5.42224M9.57379 24.1531C10.7402 21.718 11.3234 19.0956 11.3234 16.4733C11.3234 13.8509 10.7402 11.0413 9.57379 8.79352M2.5752 20.7818C3.1584 19.4706 3.5472 17.9721 3.5472 16.4736C3.5472 14.9751 3.1584 13.2893 2.5752 11.9782" fill="#F5F5F5"/>
<path d="M23.5704 30.5219C25.7088 26.2137 26.8752 21.5309 26.8752 16.4735C26.8752 11.4161 25.7088 6.54594 23.5704 2.42505M16.572 27.3378C18.1272 23.9662 19.0992 20.2199 19.0992 16.4736C19.0992 12.7274 18.1272 8.79388 16.572 5.42224M9.57379 24.1531C10.7402 21.718 11.3234 19.0956 11.3234 16.4733C11.3234 13.8509 10.7402 11.0413 9.57379 8.79352M2.5752 20.7818C3.1584 19.4706 3.5472 17.9721 3.5472 16.4736C3.5472 14.9751 3.1584 13.2893 2.5752 11.9782" stroke="#F5F5F5" stroke-width="3.79688" stroke-linecap="round" stroke-linejoin="round"/>
</svg>
