<svg width="61" height="60" viewBox="0 0 61 60" fill="none" xmlns="http://www.w3.org/2000/svg">
<rect x="0.5" width="60" height="60" rx="8" fill="#92001D"/>
<path d="M22.8997 20.6667H42.5L39.8333 30H24.3356M41.1667 35.3333H25.1667L22.5 18H18.5M26.5 40.6667C26.5 41.4031 25.903 42 25.1667 42C24.4303 42 23.8333 41.4031 23.8333 40.6667C23.8333 39.9303 24.4303 39.3333 25.1667 39.3333C25.903 39.3333 26.5 39.9303 26.5 40.6667ZM41.1667 40.6667C41.1667 41.4031 40.5697 42 39.8333 42C39.0969 42 38.5 41.4031 38.5 40.6667C38.5 39.9303 39.0969 39.3333 39.8333 39.3333C40.5697 39.3333 41.1667 39.9303 41.1667 40.6667Z" stroke="#F2F2F2" stroke-width="2.5" stroke-linecap="round" stroke-linejoin="round"/>
</svg>
