<svg width="49" height="49" viewBox="0 0 49 49" fill="none" xmlns="http://www.w3.org/2000/svg">
<rect x="0.5" y="0.5" width="48" height="48" rx="24" fill="white"/>
<path fill-rule="evenodd" clip-rule="evenodd" d="M24.5 15.4589C21.7009 12.3071 17.0236 11.3331 13.5166 14.2192C10.0095 17.1052 9.51575 21.9305 12.2699 25.3438C14.5598 28.1817 21.4897 34.1672 23.761 36.1045C24.015 36.3213 24.1421 36.4296 24.2903 36.4722C24.4196 36.5093 24.5611 36.5093 24.6906 36.4722C24.8388 36.4296 24.9657 36.3213 25.2199 36.1045C27.4912 34.1672 34.421 28.1817 36.711 25.3438C39.4651 21.9305 39.0316 17.0748 35.4642 14.2192C31.8968 11.3635 27.2991 12.3071 24.5 15.4589Z" stroke="black" stroke-width="2" stroke-linecap="round" stroke-linejoin="round"/>
</svg>
