<svg width="49" height="48" viewBox="0 0 49 48" fill="none" xmlns="http://www.w3.org/2000/svg">
<rect x="0.5" width="48" height="48" rx="24" fill="white"/>
<path fill-rule="evenodd" clip-rule="evenodd" d="M24.5 14.9589C21.7009 11.8071 17.0236 10.8331 13.5166 13.7192C10.0095 16.6052 9.51575 21.4305 12.2699 24.8438C14.5598 27.6817 21.4897 33.6672 23.761 35.6045C24.015 35.8213 24.1421 35.9296 24.2903 35.9722C24.4196 36.0093 24.5611 36.0093 24.6906 35.9722C24.8388 35.9296 24.9657 35.8213 25.2199 35.6045C27.4912 33.6672 34.421 27.6817 36.711 24.8438C39.4651 21.4305 39.0316 16.5748 35.4642 13.7192C31.8968 10.8635 27.2991 11.8071 24.5 14.9589Z" stroke="black" stroke-width="2" stroke-linecap="round" stroke-linejoin="round"/>
</svg>
