<svg width="48" height="48" viewBox="0 0 48 48" fill="none" xmlns="http://www.w3.org/2000/svg">
<g clip-path="url(#clip0_83_584)">
<path d="M24 14C29.52 14 34 18.48 34 24C34 25.3 33.74 26.52 33.28 27.66L39.12 33.5C42.14 30.98 44.52 27.72 45.98 24C42.52 15.22 33.98 9 23.98 9C21.18 9 18.5 9.5 16.02 10.4L20.34 14.72C21.48 14.26 22.7 14 24 14ZM4 8.54L8.56 13.1L9.48 14.02C6.16 16.6 3.56 20.04 2 24C5.46 32.78 14 39 24 39C27.1 39 30.06 38.4 32.76 37.32L33.6 38.16L39.46 44L42 41.46L6.54 6L4 8.54ZM15.06 19.6L18.16 22.7C18.06 23.12 18 23.56 18 24C18 27.32 20.68 30 24 30C24.44 30 24.88 29.94 25.3 29.84L28.4 32.94C27.06 33.6 25.58 34 24 34C18.48 34 14 29.52 14 24C14 22.42 14.4 20.94 15.06 19.6ZM23.68 18.04L29.98 24.34L30.02 24.02C30.02 20.7 27.34 18.02 24.02 18.02L23.68 18.04Z" fill="#333333"/>
</g>
<defs>
<clipPath id="clip0_83_584">
<rect width="48" height="48" fill="white"/>
</clipPath>
</defs>
</svg>
