<svg width="48" height="48" viewBox="0 0 48 48" fill="none" xmlns="http://www.w3.org/2000/svg">
<rect width="48" height="48" rx="24" fill="white"/>
<path fill-rule="evenodd" clip-rule="evenodd" d="M24 14.9589C21.2009 11.8071 16.5236 10.8331 13.0166 13.7192C9.5095 16.6052 9.01575 21.4305 11.7699 24.8438C14.0598 27.6817 20.9897 33.6672 23.261 35.6045C23.515 35.8213 23.6421 35.9296 23.7903 35.9722C23.9196 36.0093 24.0611 36.0093 24.1906 35.9722C24.3388 35.9296 24.4657 35.8213 24.7199 35.6045C26.9912 33.6672 33.921 27.6817 36.211 24.8438C38.9651 21.4305 38.5316 16.5748 34.9642 13.7192C31.3968 10.8635 26.7991 11.8071 24 14.9589Z" stroke="black" stroke-width="2" stroke-linecap="round" stroke-linejoin="round"/>
</svg>
