<svg width="60" height="61" viewBox="0 0 60 61" fill="none" xmlns="http://www.w3.org/2000/svg">
<rect y="0.5" width="60" height="60" rx="8" fill="#92001D"/>
<path d="M22.3997 21.1667H42L39.3333 30.5H23.8356M40.6667 35.8333H24.6667L22 18.5H18M26 41.1667C26 41.9031 25.403 42.5 24.6667 42.5C23.9303 42.5 23.3333 41.9031 23.3333 41.1667C23.3333 40.4303 23.9303 39.8333 24.6667 39.8333C25.403 39.8333 26 40.4303 26 41.1667ZM40.6667 41.1667C40.6667 41.9031 40.0697 42.5 39.3333 42.5C38.5969 42.5 38 41.9031 38 41.1667C38 40.4303 38.5969 39.8333 39.3333 39.8333C40.0697 39.8333 40.6667 40.4303 40.6667 41.1667Z" stroke="#F2F2F2" stroke-width="3" stroke-linecap="round" stroke-linejoin="round"/>
</svg>
