<svg width="60" height="60" viewBox="0 0 60 60" fill="none" xmlns="http://www.w3.org/2000/svg">
<rect width="60" height="60" rx="8" fill="#92001D"/>
<path d="M22.3997 20.6667H42L39.3333 30H23.8356M40.6667 35.3333H24.6667L22 18H18M26 40.6667C26 41.4031 25.403 42 24.6667 42C23.9303 42 23.3333 41.4031 23.3333 40.6667C23.3333 39.9303 23.9303 39.3333 24.6667 39.3333C25.403 39.3333 26 39.9303 26 40.6667ZM40.6667 40.6667C40.6667 41.4031 40.0697 42 39.3333 42C38.5969 42 38 41.4031 38 40.6667C38 39.9303 38.5969 39.3333 39.3333 39.3333C40.0697 39.3333 40.6667 39.9303 40.6667 40.6667Z" stroke="#F2F2F2" stroke-width="2.5" stroke-linecap="round" stroke-linejoin="round"/>
</svg>
